<svg width="17" height="17" viewBox="0 0 17 17" fill="none" xmlns="http://www.w3.org/2000/svg">
<g clip-path="url(#clip0_1_2087)">
<path d="M8.1748 1.0459C8.38646 0.984619 8.61354 0.984619 8.8252 1.0459C8.89188 1.06526 8.99504 1.10963 9.2002 1.25977C9.41627 1.41792 9.68072 1.64353 10.0889 1.99316L15.1885 6.3623C15.6546 6.76158 15.7485 6.8525 15.8115 6.94336C15.8817 7.04471 15.9326 7.15622 15.9639 7.27344C15.9913 7.37613 16 7.50073 16 8.1084V13.8789C16 14.3772 15.9996 14.7001 15.9824 14.9473C15.9659 15.1846 15.9369 15.278 15.917 15.3252C15.8061 15.5874 15.5908 15.8022 15.3125 15.915C15.2574 15.9374 15.1549 15.966 14.9082 15.9824C14.6529 15.9994 14.3205 16 13.8125 16C13.304 16 12.9711 15.9995 12.7158 15.9824C12.4696 15.966 12.3677 15.9374 12.3125 15.915C12.034 15.8021 11.8189 15.5872 11.708 15.3252C11.6881 15.2781 11.6591 15.1847 11.6426 14.9473C11.6254 14.7 11.625 14.3772 11.625 13.8789V12.8389C11.625 11.1177 10.2058 9.75781 8.5 9.75781C6.7942 9.75781 5.375 11.1177 5.375 12.8389V13.8789C5.375 14.3772 5.37465 14.7001 5.35742 14.9473C5.34086 15.1846 5.31189 15.278 5.29199 15.3252C5.1811 15.5873 4.96593 15.8021 4.6875 15.915C4.63239 15.9374 4.52986 15.966 4.2832 15.9824C4.02786 15.9994 3.69554 16 3.1875 16C2.67904 16 2.3461 15.9995 2.09082 15.9824C1.84465 15.966 1.74265 15.9374 1.6875 15.915C1.40906 15.8021 1.1939 15.5873 1.08301 15.3252C1.06312 15.2781 1.03413 15.1847 1.01758 14.9473C1.00038 14.7001 1 14.3772 1 13.8789V8.1084C1 7.49943 1.00787 7.37574 1.03516 7.27344C1.06596 7.15803 1.11797 7.04645 1.18945 6.94336C1.25247 6.85247 1.3457 6.76136 1.81152 6.3623L6.91309 1.99219C7.32069 1.64302 7.58503 1.41771 7.80078 1.25977C8.00574 1.10976 8.10832 1.06518 8.1748 1.0459Z" stroke="#7A82EB" stroke-width="2" stroke-linecap="round" stroke-linejoin="round"/>
</g>
<defs>
<clipPath id="clip0_1_2087">
<rect width="17" height="17" fill="white"/>
</clipPath>
</defs>
</svg>
