<svg width="27" height="25" viewBox="0 0 27 25" fill="none" xmlns="http://www.w3.org/2000/svg">
<g clip-path="url(#clip0_1_2176)">
<path d="M16.3229 20.1427C16.6872 18.9678 17.4423 17.9661 18.1899 16.968C18.3872 16.7065 18.5845 16.445 18.7742 16.1798C19.5256 15.1301 19.9658 13.8595 19.9658 12.4857C19.9658 8.90213 16.9756 5.99991 13.2872 5.99991C9.59881 5.99991 6.60864 8.90213 6.60864 12.482C6.60864 13.8558 7.04882 15.1301 7.80016 16.1761C7.98989 16.4413 8.18721 16.7028 8.38453 16.9643C9.13587 17.9624 9.891 18.9678 10.2515 20.1391H16.3229V20.1427ZM13.2872 24.857C14.9644 24.857 16.3229 23.5385 16.3229 21.9106V21.3213H10.2515V21.9106C10.2515 23.5385 11.61 24.857 13.2872 24.857ZM10.2515 12.482C10.2515 12.8061 9.97828 13.0713 9.64435 13.0713C9.31042 13.0713 9.03721 12.8061 9.03721 12.482C9.03721 10.2022 10.9383 8.35705 13.2872 8.35705C13.6211 8.35705 13.8943 8.62222 13.8943 8.94633C13.8943 9.27044 13.6211 9.53562 13.2872 9.53562C11.61 9.53562 10.2515 10.8541 10.2515 12.482Z" fill="#F6828C"/>
</g>
<path d="M7.20557 6.29895L5.14375 3.42864" stroke="#F6828C" stroke-width="1.71428" stroke-linecap="round"/>
<path d="M4.39111 11.1422L0.85703 11.1422" stroke="#F6828C" stroke-width="1.71428" stroke-linecap="round"/>
<path d="M13.7153 4.39124L13.7153 0.857152" stroke="#F6828C" stroke-width="1.71428" stroke-linecap="round"/>
<path d="M19.7153 6.29895L21.7771 3.42864" stroke="#F6828C" stroke-width="1.71428" stroke-linecap="round"/>
<path d="M22.5298 11.1422L26.0639 11.1422" stroke="#F6828C" stroke-width="1.71428" stroke-linecap="round"/>
<defs>
<clipPath id="clip0_1_2176">
<rect width="14.3571" height="19.1428" fill="white" transform="translate(6.00073 5.71445)"/>
</clipPath>
</defs>
</svg>
