<svg width="44" height="44" viewBox="0 0 44 44" fill="none" xmlns="http://www.w3.org/2000/svg">
<circle cx="22" cy="22" r="22" fill="#7A82EB"/>
<path fill-rule="evenodd" clip-rule="evenodd" d="M20.4981 16.1083C27.0291 21.3435 22.5437 26.3103 25.3455 31.9699C30.765 39.8919 42.6456 31.1541 37.4714 23.4434C35.1287 19.9521 24.427 16.7261 20.4981 16.1083ZM33.9962 21.4387C37.845 23.4556 38.1878 26.7564 37.7117 28.8042C37.872 25.637 35.5566 22.4641 33.9962 21.4387Z" fill="white" stroke="black" stroke-width="0.00699237"/>
<ellipse cx="32.0366" cy="28.5993" rx="2.13708" ry="2.13708" transform="rotate(-35.7415 32.0366 28.5993)" fill="#6065A4"/>
<path fill-rule="evenodd" clip-rule="evenodd" d="M16.5861 4.48226C12.1817 16.1538 22.6306 15.5936 23.0025 23.7428C23.5455 35.6437 5.16701 35.2011 4.85849 23.8393C4.7188 18.695 13.1053 7.88557 16.5861 4.48226ZM6.8582 19.8241C4.44983 24.5662 6.80801 27.9394 8.73548 29.6443C6.01908 25.9672 6.30334 22.0426 6.8582 19.8241Z" fill="white" stroke="black" stroke-width="0.00699237"/>
<circle cx="13.9243" cy="25.1255" r="2.6158" transform="rotate(0.323103 13.9243 25.1255)" fill="#6065A4"/>
</svg>
