<svg width="27" height="26" viewBox="0 0 27 26" fill="none" xmlns="http://www.w3.org/2000/svg">
<path d="M1.20546 10.7875C0.806988 10.4165 1.02344 9.74586 1.5624 9.68152L9.19925 8.76963C9.41891 8.74341 9.60971 8.60454 9.70236 8.40233L12.9235 1.37216C13.1508 0.876011 13.8514 0.875916 14.0788 1.37206L17.2999 8.40218C17.3925 8.60439 17.5821 8.74363 17.8017 8.76985L25.439 9.68152C25.978 9.74586 26.1938 10.4167 25.7953 10.7877L20.1499 16.0445C19.9875 16.1957 19.9152 16.4207 19.9583 16.6391L21.4566 24.2326C21.5623 24.7685 20.9958 25.1838 20.5222 24.9169L13.8117 21.1344C13.6187 21.0257 13.3842 21.0262 13.1912 21.1349L6.47999 24.9159C6.00639 25.1828 5.43882 24.7685 5.54459 24.2326L7.04313 16.6396C7.08624 16.4212 7.01412 16.1956 6.85172 16.0444L1.20546 10.7875Z" stroke="#7A82EB" stroke-width="2" stroke-linecap="round" stroke-linejoin="round"/>
</svg>
