<svg width="23" height="38" viewBox="0 0 23 38" fill="none" xmlns="http://www.w3.org/2000/svg">
<path d="M20.0342 31.1735C20.4988 31.9496 18.6695 32.9557 12.2527 35.4853C5.45838 38.1586 3.86134 38.5035 3.65809 37.44C3.39678 35.974 19.2502 29.9375 20.0342 31.1735Z" fill="#7A82EB"/>
<path d="M10.5732 0.617383C13.0122 -0.589926 13.5349 -0.331246 17.8031 4.18175C22.2165 8.83846 22.8552 9.84462 22.0422 10.7357C20.5614 12.3454 18.9935 11.4831 13.2444 5.99275C9.00527 1.93969 8.77302 1.50848 10.5732 0.617383Z" fill="#7A82EB"/>
<path d="M1.28003 15.595C3.02216 14.7039 3.83515 14.7327 6.94201 15.7675C16.1463 18.8719 22.9696 20.3666 19.5435 22.0339C18.1498 22.7237 16.3785 22.3213 5.49023 19.0444C-0.520168 17.2047 -1.04281 16.8023 1.28003 15.595Z" fill="#7A82EB"/>
</svg>
