<svg preserveAspectRatio="none" width="100%" height="100%" overflow="visible" style="display: block;" viewBox="0 0 259.797 251.421" fill="none" xmlns="http://www.w3.org/2000/svg">
<path id="Vector" d="M114.896 3.5478C113.328 1.6379 115.033 0.819376 121.172 0.341902C202.888 -5.52421 280.921 65.0055 254.592 141.811C239.04 187.103 216.189 216.024 177.991 238.67C124.719 270.183 40.4105 240.58 9.64751 179.599C-3.85818 152.724 -3.10786 108.729 11.421 78.443C23.672 52.9321 53.0792 23.9357 76.5 10.7117C86.3315 5.16061 95.108 2.38875 101.118 3.82064C107.598 5.38948 108.075 7.77686 102.209 9.20928C82.4282 14.0522 44.9806 46.5887 27.9962 73.6001C6.64625 107.637 6.3052 162.82 27.2459 191.468C81.4051 265.477 163.531 262.271 221.169 183.965C230.309 171.551 242.518 143.516 245.52 128.1C258.275 62.3453 199.205 6.48085 133.313 7.09475C120.763 7.16296 117.352 6.54907 114.896 3.5478Z" fill="var(--fill-0, #7A82EB)"/>
</svg>
